<svg role="img" aria-hidden="true" width="288" height="30" viewBox="0 0 288 30" fill="none" xmlns="http://www.w3.org/2000/svg">
<path d="M4.48896 8.28943C5.44075 7.94023 6.3846 7.76562 7.32053 7.76562C8.10575 7.76562 8.82752 7.85293 9.48584 8.02753C10.1442 8.20213 10.7152 8.47991 11.1991 8.86086C11.6829 9.24182 12.0557 9.73388 12.3253 10.345C12.595 10.9482 12.7219 11.6863 12.7219 12.5434C12.7219 13.7974 12.7061 14.9561 12.6743 16.0196C12.6426 17.0831 12.6267 18.1466 12.6267 19.2021C12.6267 19.6704 12.6585 20.0355 12.7298 20.3053C12.8012 20.5672 12.9043 20.7736 13.0392 20.9085C13.174 21.0434 13.3564 21.1307 13.5785 21.1704C13.8006 21.2101 14.0623 21.2259 14.3558 21.2259V21.9323C13.7847 22.1704 13.3088 22.345 12.9202 22.464C12.5316 22.5831 12.1033 22.6386 11.6591 22.6386C10.9294 22.6386 10.3424 22.464 9.89035 22.1069C9.43825 21.7577 9.0972 21.2498 8.85925 20.5831C8.40715 21.2101 7.88367 21.7101 7.2888 22.0831C6.69393 22.4561 5.94044 22.6386 5.04417 22.6386C4.29861 22.6386 3.65615 22.5434 3.13267 22.345C2.60126 22.1466 2.16502 21.8688 1.82396 21.5037C1.48291 21.1386 1.2291 20.7259 1.07047 20.2656C0.911835 19.8053 0.83252 19.3371 0.83252 18.8688C0.83252 18.2259 0.93563 17.6625 1.14185 17.1942C1.34807 16.7259 1.64154 16.3212 2.02225 15.9878C2.40297 15.6545 2.863 15.3767 3.38648 15.1466C3.91789 14.9244 4.51276 14.7339 5.17901 14.5751C6.00389 14.3767 6.65428 14.2101 7.13017 14.0593C7.60606 13.9085 7.96298 13.7656 8.20093 13.6148C8.43888 13.464 8.58958 13.3053 8.65303 13.1307C8.72441 12.9561 8.75614 12.7418 8.75614 12.4878C8.75614 11.7815 8.51026 11.1783 8.01057 10.6783C7.51089 10.1783 6.82084 9.93229 5.94044 9.93229C5.60731 9.93229 5.26626 9.97991 4.91727 10.0672C4.56828 10.1545 4.22722 10.2736 3.90203 10.4323C3.57684 10.591 3.28337 10.7577 3.02163 10.9482C2.75989 11.1307 2.55367 11.3371 2.41883 11.5513H2.21261L1.83189 9.78943C2.65678 9.1307 3.53718 8.62277 4.48896 8.27356V8.28943ZM8.82752 15.8767C8.84339 15.4402 8.85132 15.0513 8.85132 14.718C8.43888 14.9561 7.99471 15.1466 7.53468 15.2894C7.06672 15.4402 6.64635 15.6228 6.2577 15.845C5.86905 16.0672 5.55972 16.3767 5.30591 16.7736C5.06004 17.1624 4.93313 17.7339 4.93313 18.4799C4.93313 19.2259 5.08383 19.7577 5.39316 20.1386C5.69456 20.5196 6.107 20.7101 6.61462 20.7101C7.26501 20.7101 7.78849 20.464 8.193 19.9799C8.59751 19.4878 8.7958 18.7656 8.7958 17.8053C8.7958 16.964 8.7958 16.3212 8.81959 15.8847L8.82752 15.8767Z" fill="currentColor"/>
<path d="M26.1188 10.0594C25.6588 9.51972 24.9767 9.24988 24.0804 9.24988C22.9066 9.24988 22.0262 9.78162 21.4392 10.8451C20.8523 11.9086 20.5588 13.3927 20.5588 15.2896C20.5588 17.0673 20.9316 18.4324 21.6772 19.3848C22.4227 20.3372 23.5094 20.8054 24.937 20.8054C25.5398 20.8054 26.1268 20.6626 26.6979 20.3769C27.261 20.0911 27.6893 19.7737 27.959 19.4245L28.308 19.7181C28.1731 19.9959 28.0541 20.2737 27.959 20.5673C27.8638 20.861 27.7607 21.1546 27.6655 21.4562C27.2372 21.7896 26.6899 22.0753 26.0395 22.2975C25.3812 22.5277 24.6039 22.6388 23.7077 22.6388C22.28 22.6388 21.0744 22.4324 20.0909 22.0197C19.1074 21.607 18.3221 21.0515 17.7193 20.3451C17.1165 19.6388 16.6962 18.8451 16.4344 17.9562C16.1806 17.0673 16.0537 16.1705 16.0537 15.2737C16.0537 14.1943 16.2361 13.2023 16.601 12.2816C16.9658 11.361 17.4814 10.5673 18.1635 9.90067C18.8456 9.234 19.6626 8.71019 20.6223 8.32924C21.582 7.94829 22.6528 7.75781 23.8266 7.75781C25.0005 7.75781 25.8809 7.8848 26.6582 8.13877C27.4355 8.39273 28.1731 8.72607 28.8711 9.13083C28.6332 9.51972 28.419 10.0038 28.2128 10.5673C28.0066 11.1308 27.8559 11.6705 27.7607 12.1784H27.0548C26.8961 11.2975 26.5868 10.5911 26.1268 10.0515L26.1188 10.0594Z" fill="currentColor"/>
<path d="M38.6662 9.06789C38.6662 9.3298 38.6979 9.57583 38.7534 9.82186L36.1678 9.70281C36.1281 10.1552 36.0964 10.679 36.0726 11.2663C36.0409 11.8536 36.025 12.4568 36.0171 13.0679C36.0091 13.679 36.0012 14.2663 35.9853 14.8377C35.9774 15.4092 35.9695 15.8933 35.9695 16.2822C35.9695 17.306 35.9933 18.1314 36.0409 18.7584C36.0884 19.3854 36.1757 19.8695 36.2867 20.2028C36.4057 20.5361 36.5723 20.7663 36.7864 20.8854C37.0006 21.0044 37.2782 21.06 37.6113 21.06C37.9841 21.06 38.2538 21.0361 38.4362 20.9885C38.6107 20.9409 38.7852 20.8695 38.9676 20.7742V21.9806C38.5789 22.1552 38.0872 22.3139 37.5003 22.4488C36.9133 22.5838 36.3343 22.6552 35.7712 22.6552C33.2648 22.6552 32.0116 21.1631 32.0116 18.179C32.0116 17.6076 32.0196 16.9647 32.0434 16.2504C32.0592 15.5361 32.083 14.7981 32.1147 14.0441C32.1465 13.2901 32.1703 12.5441 32.1861 11.806C32.202 11.0679 32.2178 10.3854 32.2178 9.75837L30.1636 9.79012C30.2191 9.55996 30.2508 9.31393 30.2508 9.05996C30.2508 8.8298 30.2191 8.56789 30.1636 8.27424L32.2178 8.36155C32.2178 7.75837 32.2099 7.19488 32.194 6.67107C32.1782 6.14726 32.1544 5.51234 32.1227 4.77424C32.8127 4.5044 33.4869 4.21869 34.1531 3.9171C34.8194 3.61551 35.4856 3.29805 36.1598 2.97266L36.4533 3.17901C36.4136 3.48853 36.3819 3.85361 36.3502 4.27424C36.3185 4.69488 36.2947 5.13139 36.2629 5.58377C36.2312 6.04409 36.2153 6.5044 36.2074 6.98059C36.1995 7.45678 36.1916 7.90916 36.1916 8.33774L38.7772 8.28218C38.7217 8.58377 38.69 8.85361 38.69 9.0917L38.6662 9.06789Z" fill="currentColor"/>
<path d="M41.6636 0.948165C42.1157 0.495784 42.6629 0.265625 43.3133 0.265625C43.9637 0.265625 44.511 0.495784 44.9631 0.948165C45.4152 1.40055 45.6452 1.94816 45.6452 2.59896C45.6452 3.24975 45.4152 3.79737 44.9631 4.24975C44.511 4.70213 43.9637 4.92436 43.3133 4.92436C42.6629 4.92436 42.1157 4.70213 41.6636 4.24975C41.2115 3.79737 40.9814 3.24975 40.9814 2.59896C40.9814 1.94816 41.2115 1.40055 41.6636 0.948165ZM41.2828 11.2815C41.2511 10.2339 41.1877 9.17832 41.0846 8.12277C41.3622 8.16245 41.6874 8.1942 42.0681 8.22594C42.4408 8.25769 42.8612 8.27356 43.3133 8.27356C44.2492 8.27356 44.9869 8.22594 45.5421 8.1307C45.4152 9.18626 45.3359 10.2418 45.3041 11.2894C45.2645 12.3371 45.2486 13.4561 45.2486 14.6545V15.8291C45.2486 17.0196 45.2645 18.1466 45.3041 19.2021C45.3438 20.2577 45.4231 21.2815 45.5421 22.2577C45.2883 22.2259 44.9631 22.2101 44.5744 22.2101H42.0601C41.6874 22.2101 41.3542 22.2259 41.0766 22.2577C41.1797 21.2815 41.2432 20.2577 41.2749 19.2021C41.3066 18.1466 41.3225 17.0196 41.3225 15.8291V14.6545C41.3225 13.464 41.3066 12.3371 41.2749 11.2894L41.2828 11.2815Z" fill="currentColor"/>
<path d="M49.0011 12.1626C49.3977 11.1864 49.9291 10.3689 50.5954 9.71019C51.2537 9.05146 52.023 8.56734 52.8876 8.24194C53.7521 7.91654 54.6484 7.75781 55.5605 7.75781C57.8369 7.75781 59.6056 8.40067 60.8509 9.69432C62.0961 10.988 62.7227 12.734 62.7227 14.9483C62.7227 16.1388 62.5482 17.2181 62.1992 18.1784C61.8502 19.1388 61.3585 19.9562 60.7239 20.6308C60.0894 21.3054 59.3359 21.8134 58.4555 22.1388C57.5751 22.4721 56.6154 22.6388 55.5605 22.6388C54.6801 22.6388 53.8235 22.5197 52.9748 22.2896C52.1261 22.0515 51.3647 21.6626 50.6826 21.0991C50.0005 20.5435 49.4532 19.8134 49.0328 18.9165C48.6125 18.0197 48.4062 16.9086 48.4062 15.5991C48.4062 14.2896 48.6045 13.1467 49.009 12.1626H49.0011ZM57.7258 10.5197C57.3054 9.57527 56.5995 9.09908 55.616 9.09908C54.7277 9.09908 54.0297 9.62289 53.5221 10.6784C53.0145 11.734 52.7607 13.3848 52.7607 15.6308C52.7607 16.4483 52.8083 17.2102 52.9034 17.9165C52.9986 18.6229 53.1572 19.2261 53.3793 19.7499C53.6014 20.2657 53.8869 20.6705 54.2439 20.9642C54.6008 21.2578 55.045 21.4007 55.5843 21.4007C57.4324 21.4007 58.3603 19.107 58.3603 14.5197C58.3603 12.8054 58.1462 11.4721 57.7258 10.5197Z" fill="currentColor"/>
<path d="M69.4243 10.345C69.9716 9.52753 70.6141 8.89261 71.3517 8.44023C72.0893 7.98785 72.9221 7.76562 73.866 7.76562C75.3333 7.76562 76.4676 8.1942 77.2607 9.0434C78.0539 9.89261 78.4504 11.2656 78.4504 13.1625C78.4504 14.1625 78.4346 15.0355 78.4028 15.8053C78.3711 16.5672 78.3553 17.3291 78.3553 18.091C78.3553 18.718 78.3711 19.3926 78.4028 20.1307C78.4346 20.8609 78.4663 21.5751 78.506 22.2577C78.2521 22.2259 77.927 22.2101 77.5383 22.2101H75.0716C74.683 22.2101 74.3578 22.2259 74.1039 22.2577C74.2546 21.2418 74.3419 20.0434 74.3895 18.6625C74.4291 17.2815 74.4529 15.7021 74.4529 13.9244C74.4529 12.6942 74.2388 11.7894 73.8184 11.2101C73.3901 10.6307 72.7952 10.345 72.0259 10.345C71.1375 10.345 70.4872 10.7259 70.0668 11.4878C69.6543 12.2498 69.4481 13.3053 69.4481 14.6545V15.8291C69.4481 17.0196 69.464 18.1466 69.4957 19.2021C69.5274 20.2577 69.5909 21.2736 69.6861 22.2498C69.4323 22.218 69.115 22.2021 68.7343 22.2021H66.2596C65.8869 22.2021 65.5696 22.218 65.292 22.2498C65.3951 21.2736 65.4586 20.2577 65.4903 19.2021C65.522 18.1466 65.5379 17.0196 65.5379 15.8291V14.6545C65.5379 13.464 65.522 12.345 65.4903 11.2974C65.4586 10.2498 65.3951 9.20213 65.292 8.14658C65.641 8.18626 65.99 8.21801 66.331 8.24975C66.6721 8.2815 67.0211 8.29737 67.3701 8.29737C67.719 8.29737 68.068 8.2815 68.4091 8.24975C68.7501 8.21801 69.115 8.18626 69.5036 8.14658L69.3926 10.345H69.4481H69.4243Z" fill="currentColor"/>
<path d="M82.5916 20.1704C82.7979 20.4085 83.0358 20.6228 83.3214 20.8292C83.6069 21.0355 83.9242 21.2101 84.2811 21.3451C84.638 21.48 85.0266 21.5514 85.4391 21.5514C85.8119 21.5514 86.1608 21.4958 86.5019 21.3768C86.843 21.2578 87.1444 21.0911 87.4061 20.8768C87.6678 20.6625 87.882 20.3847 88.0327 20.0514C88.1913 19.7181 88.2627 19.3371 88.2627 18.9085C88.2627 18.3054 88.0961 17.8371 87.7551 17.5117C87.414 17.1863 86.9937 16.9244 86.486 16.7181C85.9784 16.5117 85.4232 16.3292 84.8204 16.1784C84.2176 16.0197 83.6624 15.8054 83.1548 15.5197C82.6472 15.2339 82.2268 14.8609 81.8857 14.3927C81.5447 13.9244 81.3781 13.2736 81.3781 12.4562C81.3781 11.8133 81.4812 11.2181 81.7033 10.6784C81.9175 10.1387 82.2268 9.67839 82.6392 9.28156C83.0517 8.89267 83.5514 8.58315 84.1621 8.35299C84.7649 8.13077 85.4549 8.01172 86.2402 8.01172C86.9619 8.01172 87.5727 8.10696 88.0644 8.30537C88.5641 8.50378 89.0321 8.67839 89.4842 8.83712C89.3255 9.13077 89.1828 9.49585 89.04 9.92442C88.9052 10.353 88.8179 10.6863 88.7783 10.9244H88.4293C88.2706 10.4562 87.9692 10.0355 87.5251 9.66251C87.073 9.2895 86.5178 9.10696 85.8594 9.10696C85.566 9.10696 85.2725 9.15458 84.979 9.25775C84.6856 9.35299 84.4238 9.50378 84.1859 9.69426C83.9559 9.89267 83.7576 10.1466 83.599 10.4562C83.4403 10.7657 83.3689 11.1387 83.3689 11.5752C83.3689 12.2022 83.5355 12.6863 83.8766 13.0276C84.2176 13.3689 84.638 13.6387 85.1456 13.8371C85.6532 14.0355 86.2084 14.2022 86.8112 14.353C87.414 14.5038 87.9692 14.7022 88.4769 14.972C88.9845 15.2339 89.4049 15.599 89.7459 16.0752C90.087 16.5435 90.2535 17.1943 90.2535 18.0117C90.2535 18.5831 90.1346 19.1387 89.8887 19.6863C89.6428 20.2339 89.2938 20.726 88.8338 21.1705C88.3737 21.607 87.8265 21.9562 87.184 22.1943C86.5416 22.4403 85.8119 22.5593 84.9949 22.5593C84.0986 22.5593 83.3531 22.472 82.7503 22.2974C82.1475 22.1228 81.6399 21.9165 81.2354 21.6863C81.3543 21.4324 81.4733 21.0831 81.6002 20.6466C81.7271 20.2101 81.7906 19.8371 81.7906 19.5435H82.1395C82.2347 19.7419 82.3854 19.9562 82.5916 20.1863V20.1704Z" fill="currentColor"/>
<path d="M93.7344 15.1637C93.7661 14.4335 93.7819 13.7033 93.7819 12.9811C93.7819 12.2986 93.7819 11.5525 93.7661 10.751C93.7581 9.94937 93.7423 9.13985 93.7264 8.31445C94.2023 8.40969 94.6068 8.46525 94.932 8.46525C95.2334 8.46525 95.63 8.41763 96.1059 8.31445C96.0266 9.48906 95.9631 10.7748 95.9235 12.1716C95.8838 13.5684 95.86 15.0049 95.86 16.4732C95.86 17.4891 95.9473 18.2668 96.1218 18.8065C96.2962 19.3462 96.5104 19.751 96.7642 20.0208C97.0339 20.3303 97.3829 20.5922 97.8032 20.7986C98.2236 21.0049 98.7154 21.1081 99.2785 21.1081C100.095 21.1081 100.778 20.9256 101.325 20.5684C101.872 20.2033 102.269 19.7589 102.523 19.2351C102.657 18.9018 102.768 18.616 102.848 18.3859C102.927 18.1478 102.99 17.8383 103.038 17.4494C103.086 17.0605 103.117 16.5287 103.125 15.8621C103.133 15.1954 103.141 14.2906 103.141 13.1319V10.6637C103.141 10.2351 103.141 9.82239 103.125 9.4335C103.117 9.04461 103.102 8.6716 103.086 8.31445C103.3 8.35414 103.506 8.38588 103.696 8.41763C103.895 8.44937 104.093 8.46525 104.315 8.46525C104.537 8.46525 104.735 8.44937 104.926 8.41763C105.116 8.38588 105.314 8.35414 105.513 8.31445C105.418 9.83826 105.362 11.3145 105.346 12.7351C105.33 14.1557 105.314 15.6557 105.314 17.243C105.314 18.124 105.314 18.9811 105.338 19.8224C105.354 20.6637 105.378 21.4732 105.41 22.2589C105.021 22.2192 104.64 22.2033 104.267 22.2033C103.895 22.2033 103.514 22.2192 103.125 22.2589C103.141 22.0843 103.157 21.8938 103.165 21.7033C103.165 21.5049 103.181 21.2986 103.181 21.0843V19.8224H103.125C102.618 20.7589 101.967 21.4494 101.166 21.8938C100.365 22.3303 99.5006 22.5525 98.5567 22.5525C97.0339 22.5525 95.8362 22.1478 94.9717 21.3383C94.0992 20.5287 93.6709 19.3541 93.6709 17.8303C93.6709 16.7906 93.6868 15.9097 93.7185 15.1716L93.7344 15.1637Z" fill="currentColor"/>
<path d="M110.319 20.1704C110.525 20.4085 110.763 20.6228 111.049 20.8292C111.334 21.0355 111.651 21.2101 112.008 21.3451C112.373 21.48 112.754 21.5514 113.166 21.5514C113.539 21.5514 113.888 21.4958 114.229 21.3768C114.57 21.2578 114.872 21.0911 115.133 20.8768C115.395 20.6625 115.609 20.3847 115.76 20.0514C115.919 19.7181 115.99 19.3371 115.99 18.9085C115.99 18.3054 115.823 17.8371 115.482 17.5117C115.141 17.1863 114.721 16.9244 114.213 16.7181C113.706 16.5117 113.15 16.3292 112.548 16.1784C111.945 16.0197 111.39 15.8054 110.882 15.5197C110.374 15.2339 109.954 14.8609 109.613 14.3927C109.272 13.9244 109.105 13.2736 109.105 12.4562C109.105 11.8133 109.209 11.2181 109.431 10.6784C109.645 10.1387 109.954 9.67839 110.367 9.28156C110.779 8.89267 111.279 8.58315 111.881 8.35299C112.484 8.13077 113.174 8.01172 113.96 8.01172C114.681 8.01172 115.292 8.10696 115.784 8.30537C116.283 8.50378 116.751 8.67839 117.204 8.83712C117.045 9.13077 116.902 9.49585 116.767 9.92442C116.632 10.353 116.545 10.6863 116.506 10.9244H116.149C115.99 10.4562 115.689 10.0355 115.244 9.66251C114.8 9.2895 114.237 9.10696 113.579 9.10696C113.285 9.10696 112.992 9.15458 112.698 9.25775C112.405 9.35299 112.143 9.50378 111.905 9.69426C111.675 9.89267 111.477 10.1466 111.318 10.4562C111.16 10.7657 111.088 11.1387 111.088 11.5752C111.088 12.2022 111.255 12.6863 111.596 13.0276C111.937 13.3689 112.357 13.6387 112.865 13.8371C113.373 14.0355 113.928 14.2022 114.531 14.353C115.133 14.5038 115.689 14.7022 116.196 14.972C116.704 15.2339 117.124 15.599 117.465 16.0752C117.806 16.5435 117.973 17.1943 117.973 18.0117C117.973 18.5831 117.854 19.1387 117.608 19.6863C117.362 20.2339 117.013 20.726 116.553 21.1705C116.093 21.607 115.546 21.9562 114.903 22.1943C114.261 22.4403 113.531 22.5593 112.714 22.5593C111.818 22.5593 111.072 22.472 110.462 22.2974C109.859 22.1228 109.351 21.9165 108.947 21.6863C109.066 21.4324 109.185 21.0831 109.312 20.6466C109.439 20.2101 109.502 19.8371 109.502 19.5435H109.851C109.946 19.7419 110.097 19.9562 110.303 20.1863L110.319 20.1704Z" fill="currentColor"/>
<path d="M124.08 4.39258C124.024 5.13067 123.977 5.8529 123.945 6.56718C123.913 7.27353 123.882 7.98782 123.842 8.71004C124.056 8.71004 124.461 8.71004 125.048 8.69417C125.635 8.68623 126.269 8.65448 126.959 8.6148C126.935 8.67036 126.927 8.78147 126.927 8.9402V9.55925C126.927 9.69417 126.935 9.79734 126.959 9.8529C126.705 9.83702 126.444 9.82115 126.166 9.81321C125.888 9.81321 125.603 9.79734 125.286 9.79734H123.85C123.834 9.8767 123.81 10.1862 123.779 10.7418C123.747 11.2973 123.723 11.9402 123.707 12.6942C123.691 13.4481 123.675 14.2338 123.668 15.0592C123.66 15.8846 123.652 16.6148 123.652 17.2656C123.652 17.8132 123.668 18.3529 123.699 18.8846C123.731 19.4164 123.818 19.8926 123.977 20.3132C124.136 20.7338 124.366 21.0751 124.683 21.3291C124.992 21.5831 125.444 21.71 126.031 21.71C126.19 21.71 126.396 21.6862 126.658 21.6465C126.919 21.6069 127.15 21.5513 127.348 21.4958V22.2021C127.015 22.2577 126.65 22.337 126.245 22.4243C125.841 22.5116 125.46 22.5592 125.087 22.5592C123.85 22.5592 122.946 22.2577 122.351 21.6465C121.764 21.0434 121.471 20.1465 121.471 18.9719C121.471 18.4402 121.478 17.8688 121.502 17.2497C121.518 16.6307 121.542 15.9561 121.574 15.2259C121.605 14.4958 121.629 13.6783 121.645 12.7894C121.661 11.9005 121.677 10.9085 121.677 9.80528H120.749C120.59 9.80528 120.424 9.80528 120.249 9.82115C120.075 9.82909 119.884 9.84496 119.694 9.86083C119.71 9.74178 119.726 9.62274 119.741 9.51956C119.749 9.40845 119.757 9.29734 119.757 9.17829C119.757 9.07512 119.757 8.97988 119.741 8.8767C119.734 8.77353 119.718 8.67829 119.694 8.57512C120.574 8.63861 121.217 8.67036 121.629 8.67036C121.613 8.28147 121.597 7.79734 121.589 7.21797C121.582 6.63861 121.558 6.03544 121.526 5.41639L123.945 4.40051H124.088L124.08 4.39258Z" fill="currentColor"/>
<path d="M132.298 8.36105C133.044 8.12295 133.805 8.00391 134.583 8.00391C135.289 8.00391 135.931 8.10708 136.518 8.31343C137.105 8.51978 137.605 8.81343 138.017 9.19438C138.429 9.57533 138.755 10.0357 138.985 10.5753C139.223 11.115 139.342 11.7023 139.342 12.3531C139.342 13.4642 139.326 14.5753 139.294 15.6785C139.262 16.7817 139.246 17.9484 139.246 19.1785C139.246 19.4166 139.246 19.6626 139.262 19.9245C139.27 20.1864 139.318 20.4245 139.397 20.6309C139.476 20.8372 139.587 21.0039 139.738 21.1468C139.889 21.2817 140.103 21.3531 140.397 21.3531C140.492 21.3531 140.595 21.3531 140.706 21.3372C140.809 21.3293 140.92 21.2976 141.015 21.2341V21.9087C140.801 22.0118 140.531 22.0912 140.206 22.1547C139.881 22.2182 139.532 22.2499 139.151 22.2499C138.509 22.2499 138.017 22.0833 137.668 21.7579C137.327 21.4325 137.129 21.0039 137.065 20.488C136.367 21.1944 135.669 21.7103 134.987 22.0436C134.305 22.3769 133.464 22.5436 132.473 22.5436C131.989 22.5436 131.513 22.4722 131.045 22.3372C130.577 22.2023 130.165 21.9722 129.8 21.6626C129.435 21.3531 129.15 20.9722 128.92 20.5357C128.697 20.0991 128.586 19.5912 128.586 19.0277C128.586 17.8531 128.951 16.9483 129.681 16.2976C130.411 15.6547 131.426 15.2182 132.711 15.0039C133.766 14.8293 134.591 14.6785 135.185 14.5515C135.78 14.4245 136.217 14.2896 136.502 14.1547C136.788 14.0198 136.954 13.8531 137.018 13.6706C137.073 13.488 137.105 13.242 137.105 12.9484C137.105 12.4563 137.049 11.988 136.93 11.5357C136.811 11.0833 136.629 10.6944 136.375 10.361C136.121 10.0277 135.788 9.75787 135.376 9.55153C134.963 9.34518 134.464 9.242 133.877 9.242C133.092 9.242 132.362 9.4166 131.688 9.77375C131.013 10.123 130.506 10.615 130.181 11.242H129.855V9.71819C130.736 9.05153 131.545 8.59914 132.29 8.36105H132.298ZM135.963 15.2341C135.527 15.3134 135.082 15.3928 134.638 15.488C134.194 15.5753 133.75 15.6864 133.314 15.8293C132.877 15.9642 132.489 16.1547 132.148 16.3849C131.807 16.623 131.537 16.9166 131.331 17.2658C131.125 17.615 131.029 18.0674 131.029 18.615C131.029 19.5357 131.291 20.2341 131.815 20.7023C132.338 21.1706 132.925 21.4087 133.567 21.4087C134.305 21.4087 134.979 21.2023 135.598 20.7896C136.209 20.3769 136.685 19.9007 137.01 19.3531L137.129 14.9484C136.796 15.0674 136.415 15.1626 135.979 15.242L135.963 15.2341Z" fill="currentColor"/>
<path d="M145.036 2.14745C145.33 1.85379 145.679 1.71094 146.083 1.71094C146.488 1.71094 146.845 1.85379 147.13 2.14745C147.416 2.4411 147.566 2.7903 147.566 3.19506C147.566 3.59983 147.416 3.95697 147.13 4.24268C146.837 4.53633 146.488 4.67919 146.083 4.67919C145.679 4.67919 145.322 4.53633 145.036 4.24268C144.743 3.94903 144.6 3.59983 144.6 3.19506C144.6 2.7903 144.743 2.43316 145.036 2.14745ZM144.957 11.0284C144.933 10.0601 144.878 9.15538 144.798 8.31411C145.33 8.40935 145.758 8.45697 146.083 8.45697C146.408 8.45697 146.837 8.40935 147.368 8.31411C147.281 9.15538 147.233 10.0601 147.21 11.0284C147.186 11.9967 147.17 12.9173 147.17 13.7982V16.8459C147.17 17.7268 147.186 18.6474 147.21 19.6157C147.233 20.584 147.289 21.457 147.368 22.2427C146.932 22.2109 146.496 22.1951 146.083 22.1951C145.671 22.1951 145.235 22.2109 144.798 22.2427C144.878 21.457 144.933 20.584 144.957 19.6157C144.981 18.6474 144.997 17.7268 144.997 16.8459V13.7982C144.997 12.9173 144.981 11.9967 144.957 11.0284Z" fill="currentColor"/>
<path d="M161.13 10.6783C160.567 9.92429 159.782 9.55128 158.79 9.55128C157.426 9.55128 156.427 9.97191 155.792 10.8132C155.158 11.6545 154.84 12.837 154.84 14.3608V16.8529C154.84 17.7338 154.856 18.6545 154.888 19.6227C154.92 20.591 154.983 21.464 155.078 22.2497C154.626 22.2179 154.182 22.2021 153.754 22.2021C153.325 22.2021 152.881 22.2179 152.429 22.2497C152.524 21.464 152.588 20.591 152.62 19.6227C152.651 18.6545 152.659 17.7338 152.659 16.8529V13.7973C152.659 12.9164 152.643 11.9957 152.62 11.0275C152.588 10.0592 152.524 9.15445 152.429 8.31318C152.984 8.40842 153.429 8.45604 153.762 8.45604C153.92 8.45604 154.095 8.44017 154.277 8.41636C154.46 8.39255 154.69 8.35286 154.943 8.31318C154.88 9.0989 154.848 9.87667 154.848 10.6624H154.904C155.451 9.82112 156.109 9.17032 156.871 8.71001C157.632 8.24969 158.544 8.01953 159.607 8.01953C160.155 8.01953 160.71 8.0989 161.273 8.25763C161.828 8.41636 162.336 8.6862 162.788 9.06715C163.24 9.4481 163.605 9.96398 163.89 10.6227C164.176 11.2814 164.319 12.1148 164.319 13.1306C164.319 13.9719 164.303 14.837 164.271 15.7259C164.239 16.6148 164.223 17.5592 164.223 18.5592V20.464C164.223 20.7735 164.223 21.083 164.239 21.3925C164.239 21.6941 164.263 21.9878 164.279 22.2576C163.882 22.2259 163.462 22.21 163.026 22.21C162.59 22.21 162.201 22.2259 161.804 22.2576C161.844 21.2418 161.884 20.1941 161.931 19.1227C161.979 18.0513 162.003 16.9402 162.003 15.8132V14.0275C162.003 12.5592 161.717 11.456 161.154 10.7021L161.13 10.6783Z" fill="currentColor"/>
<path d="M171.448 8.36105C172.193 8.12295 172.955 8.00391 173.74 8.00391C174.446 8.00391 175.088 8.10708 175.675 8.31343C176.262 8.51978 176.762 8.81343 177.174 9.19438C177.587 9.57533 177.904 10.0357 178.142 10.5753C178.38 11.115 178.491 11.7023 178.491 12.3531C178.491 13.4642 178.475 14.5753 178.443 15.6785C178.412 16.7817 178.396 17.9484 178.396 19.1785C178.396 19.4166 178.396 19.6626 178.412 19.9245C178.42 20.1864 178.467 20.4245 178.547 20.6309C178.626 20.8372 178.737 21.0039 178.888 21.1468C179.03 21.2817 179.252 21.3531 179.546 21.3531C179.641 21.3531 179.744 21.3531 179.855 21.3372C179.958 21.3293 180.061 21.2976 180.165 21.2341V21.9087C179.95 22.0118 179.681 22.0912 179.356 22.1547C179.03 22.2182 178.681 22.2499 178.301 22.2499C177.658 22.2499 177.166 22.0833 176.825 21.7579C176.484 21.4325 176.286 21.0039 176.223 20.488C175.525 21.1944 174.827 21.7103 174.145 22.0436C173.462 22.3769 172.622 22.5436 171.63 22.5436C171.146 22.5436 170.663 22.4722 170.195 22.3372C169.727 22.2023 169.314 21.9722 168.949 21.6626C168.585 21.3531 168.299 20.9722 168.069 20.5357C167.847 20.0991 167.736 19.5912 167.736 19.0277C167.736 17.8531 168.101 16.9483 168.83 16.2976C169.56 15.6547 170.575 15.2182 171.86 15.0039C172.915 14.8293 173.74 14.6785 174.335 14.5515C174.93 14.4245 175.366 14.2896 175.652 14.1547C175.937 14.0198 176.104 13.8531 176.167 13.6706C176.223 13.488 176.254 13.242 176.254 12.9484C176.254 12.4563 176.199 11.988 176.08 11.5357C175.961 11.0833 175.778 10.6944 175.525 10.361C175.271 10.0277 174.938 9.75787 174.525 9.55153C174.113 9.34518 173.613 9.242 173.026 9.242C172.241 9.242 171.511 9.4166 170.837 9.77375C170.163 10.123 169.655 10.615 169.322 11.242H168.997V9.71819C169.877 9.05153 170.686 8.59914 171.432 8.36105H171.448ZM175.112 15.2341C174.676 15.3134 174.232 15.3928 173.788 15.488C173.343 15.5753 172.899 15.6864 172.463 15.8293C172.027 15.9642 171.638 16.1547 171.297 16.3849C170.956 16.623 170.686 16.9166 170.48 17.2658C170.274 17.615 170.171 18.0674 170.171 18.615C170.171 19.5357 170.433 20.2341 170.956 20.7023C171.48 21.1706 172.066 21.4087 172.709 21.4087C173.447 21.4087 174.121 21.2023 174.739 20.7896C175.35 20.3769 175.826 19.9007 176.151 19.3531L176.27 14.9484C175.937 15.0674 175.556 15.1626 175.12 15.242L175.112 15.2341Z" fill="currentColor"/>
<path d="M195.726 18.02C195.385 18.9565 194.917 19.766 194.322 20.4406C193.727 21.1152 193.022 21.6311 192.213 21.9962C191.403 22.3613 190.531 22.5359 189.595 22.5359C188.659 22.5359 187.81 22.3375 187.065 21.9327C186.311 21.5359 185.74 21.0438 185.352 20.4803C184.646 21.0438 183.995 21.6152 183.393 22.1787H182.869C182.909 21.7105 182.948 21.139 182.98 20.4803C183.012 19.8136 183.036 19.1073 183.059 18.3533C183.083 17.5994 183.091 16.8295 183.107 16.0517C183.115 15.266 183.123 14.5438 183.123 13.8771V8.56762C183.123 7.90095 183.123 7.17873 183.107 6.39301C183.099 5.6073 183.083 4.83746 183.059 4.07555C183.036 3.31365 183.012 2.58349 182.98 1.89301C182.948 1.20254 182.917 0.607298 182.869 0.115234C183.416 0.210472 183.853 0.266028 184.186 0.266028C184.4 0.266028 184.622 0.250155 184.86 0.218409C185.09 0.186663 185.352 0.154917 185.621 0.115234C185.566 0.504123 185.526 1.13111 185.487 1.98031C185.447 2.82952 185.423 3.7819 185.407 4.82952C185.391 5.87714 185.376 6.94857 185.352 8.05968C185.336 9.16285 185.312 10.1708 185.296 11.0676H185.352C186.01 10.0121 186.748 9.23428 187.541 8.74222C188.342 8.25016 189.262 8.00412 190.317 8.00412C191.372 8.00412 192.205 8.1946 192.95 8.57555C193.688 8.9565 194.306 9.46444 194.79 10.0914C195.274 10.7184 195.639 11.4486 195.885 12.2819C196.131 13.1152 196.25 13.9882 196.25 14.9089C196.25 16.0438 196.075 17.0835 195.734 18.02H195.726ZM193.323 12.4327C193.101 11.7422 192.807 11.1549 192.443 10.6867C192.078 10.2184 191.665 9.86127 191.189 9.61523C190.713 9.3692 190.222 9.25016 189.714 9.25016C189.111 9.25016 188.532 9.36127 187.977 9.59143C187.422 9.81365 186.938 10.1867 186.526 10.7105C186.113 11.2263 185.788 11.9009 185.55 12.7343C185.304 13.5676 185.185 14.5914 185.185 15.8057C185.185 19.7422 186.605 21.7105 189.452 21.7105C190.055 21.7105 190.61 21.5517 191.118 21.2263C191.626 20.9009 192.07 20.4406 192.45 19.8295C192.831 19.2263 193.125 18.4962 193.339 17.6549C193.553 16.8136 193.664 15.8692 193.664 14.8375C193.664 13.9406 193.553 13.139 193.331 12.4486L193.323 12.4327Z" fill="currentColor"/>
<path d="M200.502 2.14745C200.795 1.85379 201.144 1.71094 201.549 1.71094C201.953 1.71094 202.31 1.85379 202.596 2.14745C202.889 2.4411 203.032 2.7903 203.032 3.19506C203.032 3.59983 202.889 3.95697 202.596 4.24268C202.302 4.53633 201.953 4.67919 201.549 4.67919C201.144 4.67919 200.787 4.53633 200.502 4.24268C200.208 3.94903 200.065 3.59983 200.065 3.19506C200.065 2.7903 200.208 2.43316 200.502 2.14745ZM200.422 11.0284C200.399 10.0601 200.343 9.15538 200.264 8.31411C200.795 8.40935 201.223 8.45697 201.549 8.45697C201.874 8.45697 202.302 8.40935 202.834 8.31411C202.754 9.15538 202.699 10.0601 202.675 11.0284C202.651 11.9967 202.635 12.9173 202.635 13.7982V16.8459C202.635 17.7268 202.651 18.6474 202.675 19.6157C202.699 20.584 202.754 21.457 202.834 22.2427C202.397 22.2109 201.961 22.1951 201.549 22.1951C201.136 22.1951 200.7 22.2109 200.264 22.2427C200.343 21.457 200.399 20.584 200.422 19.6157C200.446 18.6474 200.462 17.7268 200.462 16.8459V13.7982C200.462 12.9173 200.446 11.9967 200.422 11.0284Z" fill="currentColor"/>
<path d="M208.655 6.40082C208.647 5.61511 208.632 4.84527 208.608 4.08336C208.584 3.32146 208.56 2.5913 208.529 1.90082C208.497 1.21035 208.465 0.61511 208.417 0.123047C208.965 0.218285 209.401 0.273841 209.734 0.273841C210.067 0.273841 210.503 0.226221 211.051 0.123047C211.019 0.61511 210.987 1.20241 210.964 1.90082C210.94 2.5913 210.916 3.32146 210.9 4.08336C210.884 4.84527 210.868 5.61511 210.86 6.40082C210.852 7.18654 210.845 7.90876 210.845 8.57543V13.885C210.845 14.5516 210.845 15.2738 210.86 16.0596C210.86 16.8453 210.884 17.6151 210.9 18.377C210.916 19.1389 210.94 19.8611 210.964 20.5516C210.987 21.2342 211.019 21.8056 211.051 22.25C210.607 22.2183 210.162 22.2024 209.734 22.2024C209.306 22.2024 208.87 22.2183 208.417 22.25C208.457 21.7976 208.497 21.2342 208.529 20.5516C208.56 19.8691 208.584 19.1469 208.608 18.377C208.632 17.6151 208.64 16.8453 208.655 16.0596C208.663 15.2738 208.671 14.5516 208.671 13.885V8.57543C208.671 7.90876 208.671 7.18654 208.655 6.40082Z" fill="currentColor"/>
<path d="M216.816 2.14745C217.109 1.85379 217.458 1.71094 217.863 1.71094C218.267 1.71094 218.624 1.85379 218.91 2.14745C219.203 2.4411 219.346 2.7903 219.346 3.19506C219.346 3.59983 219.195 3.95697 218.91 4.24268C218.624 4.5284 218.267 4.67919 217.863 4.67919C217.458 4.67919 217.101 4.53633 216.816 4.24268C216.522 3.94903 216.379 3.59983 216.379 3.19506C216.379 2.7903 216.522 2.43316 216.816 2.14745ZM216.736 11.0284C216.713 10.0601 216.657 9.15538 216.578 8.31411C217.109 8.40935 217.537 8.45697 217.863 8.45697C218.188 8.45697 218.616 8.40935 219.148 8.31411C219.06 9.15538 219.013 10.0601 218.989 11.0284C218.965 11.9967 218.949 12.9173 218.949 13.7982V16.8459C218.949 17.7268 218.965 18.6474 218.989 19.6157C219.013 20.584 219.068 21.457 219.148 22.2427C218.711 22.2109 218.275 22.1951 217.863 22.1951C217.45 22.1951 217.014 22.2109 216.578 22.2427C216.657 21.457 216.713 20.584 216.736 19.6157C216.76 18.6474 216.776 17.7268 216.776 16.8459V13.7982C216.776 12.9173 216.76 11.9967 216.736 11.0284Z" fill="currentColor"/>
<path d="M226.858 4.39258C226.802 5.13067 226.754 5.8529 226.723 6.56718C226.691 7.27353 226.659 7.98782 226.62 8.71004C226.834 8.71004 227.238 8.71004 227.825 8.69417C228.412 8.68623 229.047 8.65448 229.729 8.6148C229.705 8.67036 229.697 8.78147 229.697 8.9402V9.55925C229.697 9.69417 229.705 9.79734 229.729 9.8529C229.475 9.83702 229.213 9.82115 228.936 9.81321C228.658 9.81321 228.373 9.79734 228.055 9.79734H226.62C226.604 9.8767 226.58 10.1862 226.548 10.7418C226.517 11.2894 226.501 11.9402 226.477 12.6942C226.461 13.4481 226.445 14.2338 226.437 15.0592C226.429 15.8846 226.421 16.6148 226.421 17.2656C226.421 17.8132 226.437 18.3529 226.469 18.8846C226.501 19.4164 226.588 19.8926 226.747 20.3132C226.905 20.7338 227.135 21.0751 227.452 21.3291C227.762 21.5831 228.214 21.71 228.801 21.71C228.959 21.71 229.166 21.6862 229.427 21.6465C229.689 21.6069 229.919 21.5513 230.117 21.4958V22.2021C229.784 22.2577 229.419 22.337 229.015 22.4243C228.61 22.5116 228.23 22.5592 227.857 22.5592C226.628 22.5592 225.708 22.2577 225.121 21.6465C224.534 21.0434 224.232 20.1465 224.232 18.9719C224.232 18.4402 224.24 17.8688 224.264 17.2497C224.28 16.6307 224.304 15.9561 224.335 15.2259C224.367 14.4958 224.391 13.6783 224.407 12.7894C224.423 11.9005 224.438 10.9085 224.438 9.80528H223.51C223.352 9.80528 223.185 9.80528 223.011 9.82115C222.836 9.82909 222.646 9.84496 222.456 9.86083C222.471 9.74178 222.487 9.62274 222.495 9.51956C222.503 9.40845 222.511 9.29734 222.511 9.17829C222.511 9.07512 222.511 8.97988 222.495 8.8767C222.487 8.77353 222.471 8.67829 222.456 8.57512C223.336 8.63861 223.978 8.67036 224.391 8.67036C224.375 8.28147 224.359 7.79734 224.351 7.21797C224.351 6.63861 224.319 6.03544 224.288 5.41639L226.707 4.40051H226.858V4.39258Z" fill="currentColor"/>
<path d="M235.798 20.2351C235.457 19.3938 235.092 18.5049 234.695 17.5764C234.307 16.6478 233.902 15.6954 233.49 14.7272C233.077 13.7589 232.689 12.8462 232.332 11.997C231.967 11.1478 231.65 10.3938 231.38 9.75096C231.102 9.1081 230.904 8.62398 230.761 8.31445C231.015 8.35414 231.253 8.38588 231.467 8.41763C231.681 8.44937 231.895 8.46525 232.11 8.46525C232.324 8.46525 232.538 8.44937 232.752 8.41763C232.966 8.38588 233.204 8.35414 233.458 8.31445C234.061 10.1954 234.743 12.0525 235.481 13.8938C236.226 15.7351 237.003 17.6319 237.828 19.5922C238.653 17.87 239.438 16.0287 240.192 14.0684C240.945 12.1081 241.612 10.1954 242.206 8.31445C242.595 8.40969 242.92 8.46525 243.174 8.46525C243.428 8.46525 243.753 8.41763 244.142 8.31445C244.007 8.59223 243.785 9.05255 243.483 9.71128C243.182 10.37 242.817 11.1478 242.397 12.0605C241.976 12.9732 241.516 13.9811 241.017 15.0843C240.517 16.1875 240.009 17.3303 239.494 18.4891C238.978 19.6557 238.463 20.8065 237.955 21.9573C237.448 23.1002 236.98 24.1875 236.543 25.2192C236.115 26.243 235.734 27.1795 235.417 28.0129C235.092 28.8462 234.854 29.5049 234.695 29.997C234.307 29.9018 233.974 29.8462 233.696 29.8462C233.418 29.8462 233.093 29.8938 232.697 29.997C234.243 27.4335 235.552 24.87 236.631 22.2986C236.416 21.7668 236.139 21.0843 235.798 20.243V20.2351Z" fill="currentColor"/>
<path d="M260.464 2.7503H260.599C260.52 2.78204 260.393 2.80585 260.242 2.82173C261.67 2.7503 263.486 2.45665 264.684 2.21855C265.12 2.21061 265.501 2.14712 265.54 2.06776C265.58 1.98839 265.255 1.9249 264.81 1.93284C264.715 1.93284 264.596 1.93284 264.525 1.91696C263.89 1.82173 263.113 1.79792 262.257 1.82966L262.764 1.84554C262.518 1.84554 262.272 1.86141 262.003 1.88522L262.098 1.91696C261.241 1.91696 260.091 2.13919 259.528 2.40903C258.965 2.68681 259.227 2.82173 260.075 2.76617L260.448 2.7503H260.464Z" fill="currentColor"/>
<path d="M262.067 2.9725C261.575 2.98044 261.091 2.99631 260.615 3.02012H260.52L260.568 3.12329C260.988 2.94075 261.718 2.78996 262.384 2.68679L262.622 2.6471C262.733 2.61536 262.812 2.59155 262.828 2.5598C262.876 2.49631 262.662 2.46456 262.344 2.48837L261.98 2.52012C261.083 2.55187 259.687 2.7979 259.219 3.11536C259.116 3.18679 259.227 3.21853 259.267 3.27409C259.251 3.36139 259.6 3.34552 260.036 3.27409C260.473 3.19472 260.837 3.07568 260.861 2.99631L261.091 2.98044L260.917 3.03599C261.028 2.94869 261.424 2.86933 261.718 2.7979L262.162 2.72647L261.884 2.57568L261.654 2.63123L261.71 2.6471C261.274 2.75822 260.861 2.86933 260.385 2.98837L259.791 3.17091C259.632 3.24234 259.656 3.28996 259.846 3.28202L260.124 3.26615H259.997C260.623 3.18679 261.282 3.10742 261.9 3.07568C261.995 3.07568 262.114 3.05187 262.162 3.02806C262.202 3.00425 262.162 2.98837 262.059 2.99631L262.067 2.9725Z" fill="currentColor"/>
<path d="M259.884 3.33789C259.781 3.33789 259.677 3.34583 259.535 3.38551C259.503 3.40138 259.487 3.40932 259.479 3.41726C259.535 3.41726 259.606 3.41726 259.685 3.40932C259.828 3.40932 259.9 3.36964 259.884 3.34583V3.33789Z" fill="currentColor"/>
<path d="M284.155 11.9959C285.075 13.8054 285.709 15.7181 286.122 17.6546C286.137 17.7181 286.153 17.7737 286.169 17.7737C286.177 17.7737 286.177 17.726 286.169 17.6625C285.757 15.726 285.13 13.8133 284.21 11.9959C284.178 11.9324 284.147 11.8927 284.131 11.8848C284.123 11.8848 284.131 11.9324 284.163 11.9879L284.155 11.9959Z" fill="currentColor"/>
<path d="M285.821 26.2984C285.821 26.2508 285.797 26.2587 285.789 26.2984C285.781 26.3381 285.781 26.4095 285.789 26.4572C285.789 26.4968 285.813 26.4968 285.821 26.4572C285.829 26.4095 285.829 26.3381 285.821 26.2984Z" fill="currentColor"/>
<path d="M284.933 25.8853C284.925 25.6234 284.909 25.3774 284.869 25.1631C284.869 25.1234 284.869 25.0758 284.869 25.044C284.853 25.0599 284.837 25.0123 284.821 24.9171C284.655 23.0917 284.465 21.1313 284.036 19.2742C284.02 19.2663 283.997 19.2425 283.981 19.2028C283.909 19.0837 283.838 18.8298 283.798 18.5599L283.767 18.3536C283.608 17.5361 283.426 16.7266 283.18 15.9409C283.108 15.7901 283.029 15.6075 282.95 15.4171C282.656 14.7663 282.315 14.1472 281.958 13.5282C281.966 13.5758 281.958 13.6075 281.95 13.6155C281.903 13.6155 281.815 13.4806 281.72 13.3218L281.577 13.0679C281.704 13.3139 281.831 13.5599 281.934 13.8139L281.974 13.9171C282.109 14.1869 282.228 14.4726 282.355 14.7583C283.449 17.2663 284.068 19.8694 284.433 22.5202C284.441 22.5599 284.449 22.6313 284.433 22.671C284.433 22.6948 284.409 22.6948 284.401 22.6472C284.084 20.9885 283.632 19.5996 283.084 17.8536C282.402 15.7821 281.49 13.8774 280.213 12.2107C278.968 10.4091 277.374 9.12341 275.407 8.13135C272.726 6.80595 269.791 6.25833 266.706 6.17103C265.548 6.17103 264.477 6.06785 264.303 5.84563C264.207 5.71071 264.461 5.55992 264.953 5.44881H264.659H264.199C263.763 5.44881 263.383 5.425 263.137 5.36944L262.803 5.30595C262.351 5.16309 261.622 5.0996 261.233 4.96468L261.304 4.87738H261.217C260.932 4.86151 260.725 4.82182 260.646 4.75833V4.66309C260.702 4.55198 260.821 4.43293 261.035 4.30595C261.019 4.26627 261.035 4.22658 261.098 4.1869C260.884 4.13135 260.781 4.05198 260.916 3.91706C260.789 3.91706 260.805 3.86944 260.948 3.82182C260.995 3.80595 261.051 3.79008 261.114 3.78214C261.043 3.76627 261.027 3.76627 260.932 3.75833C260.813 3.76627 260.741 3.7742 260.741 3.7742C260.53 3.80066 260.332 3.82447 260.146 3.84563C259.901 3.86151 259.75 3.84563 259.75 3.84563C259.456 3.74246 259.448 3.74246 259.48 3.67103L259.528 3.63928C259.306 3.66309 259.29 3.66309 259.234 3.67103C259.171 3.67103 259.123 3.67103 259.123 3.67103C259.099 3.63928 259.107 3.63928 259.06 3.63135C259.044 3.62341 259.044 3.60754 259.044 3.60754C259.171 3.53611 259.163 3.53611 259.171 3.52024C259.195 3.50436 259.234 3.48055 259.234 3.48055C259.377 3.43293 259.433 3.41706 259.456 3.40912C259.782 3.44087 259.774 3.44087 259.782 3.44087C259.837 3.39325 259.837 3.39325 259.837 3.39325L259.916 3.425L259.869 3.39325H260.027H259.845C260.202 3.32976 260.202 3.32976 260.345 3.30595C260.495 3.28214 260.622 3.25039 260.638 3.25039C260.622 3.24246 260.622 3.23452 260.622 3.23452C260.881 3.20278 261.135 3.17367 261.384 3.14722C261.384 3.14722 261.447 3.15516 261.479 3.16309C261.511 3.14722 261.582 3.13135 261.661 3.12341L261.86 3.10754H261.899V3.09166C261.963 3.07579 262.01 3.06785 262.066 3.05198C262.098 3.04404 262.098 3.04404 262.098 3.04404C262.209 3.02024 262.375 2.98055 262.803 2.88531C262.922 2.88531 263.034 2.87738 263.137 2.86944H263.041C262.978 2.85357 263.034 2.81389 262.994 2.81389C262.161 2.81389 261.257 2.90119 260.369 3.02024C260.21 3.05198 260.059 3.05992 260.027 3.03611C260.004 3.0123 260.107 2.96468 260.273 2.93293C262.042 2.41706 264.295 2.24246 266.166 2.40912C266.658 2.425 267.158 2.45674 267.65 2.50436L267.578 2.48055L267.959 2.52817H267.999L267.713 2.44881L267.515 2.41706C266.357 2.32976 265.31 2.24246 264.192 2.24246C263.589 2.24246 263.073 2.22658 262.494 2.24246C262.351 2.25833 262.24 2.24246 262.256 2.21071C262.272 2.1869 262.407 2.14722 262.55 2.13928C264.437 1.88531 266.642 1.90912 268.157 2.25039C268.506 2.2742 268.839 2.32976 269.117 2.39325H269.133L268.927 2.32182C269.188 2.36151 269.323 2.425 269.553 2.47262L269.474 2.38531C270.751 2.57579 272.139 2.8377 273.281 3.2742L273.416 3.32182C273.931 3.425 274.455 3.53611 275.034 3.75833C274.836 3.67103 274.653 3.59166 274.455 3.52024C274.891 3.63928 275.327 3.78214 275.772 3.98055C276.993 4.48849 278.23 5.36944 278.69 5.925C280.816 7.34563 282.617 9.2742 283.909 11.4567C283.973 11.5679 284.02 11.679 284.012 11.7107C283.997 11.7345 283.941 11.671 283.878 11.552C282.918 10.0123 281.72 8.57579 280.324 7.36944C281.443 8.425 282.434 9.63135 283.251 10.9647L283.576 11.4726C283.679 11.6393 283.767 11.8218 283.854 11.9964C284.798 13.7425 285.432 15.5202 285.94 17.4488C286.368 19.0917 286.63 20.5599 286.82 22.2266C287.09 24.5679 287.145 26.7186 286.971 29.0202C286.955 29.3298 286.892 29.6075 286.828 29.6393C286.773 29.671 286.733 29.4488 286.757 29.1393C286.939 24.3615 286.622 19.552 284.909 14.7028C284.726 14.179 284.504 13.679 284.29 13.179C284.29 13.1869 284.29 13.1948 284.274 13.2028C284.25 13.2186 284.195 13.179 284.139 13.1155C284.393 13.679 284.623 14.2504 284.821 14.8377C285.48 16.425 285.932 18.0996 286.17 19.9012C286.328 21.1393 286.36 22.2663 286.344 23.4091C286.447 24.8536 286.479 26.2901 286.424 27.7425C286.424 27.798 286.416 27.8615 286.4 27.8774C286.384 27.9012 286.376 27.8694 286.376 27.806C286.36 26.806 286.344 25.7821 286.281 24.7504C286.249 24.9171 286.202 25.0123 286.154 24.9964C286.098 24.9806 286.059 24.8615 286.019 24.671V25.3694C286.019 25.5123 285.995 25.6234 285.972 25.6234C285.948 25.6234 285.924 25.5044 285.924 25.3694C285.924 24.425 285.908 23.4726 285.845 22.5282C285.749 21.3933 285.575 20.2742 285.369 19.1472C285.369 19.306 285.345 19.4329 285.305 19.4885L285.385 20.0123C285.995 23.171 286.043 26.4964 285.718 29.7821C285.718 29.8456 285.702 29.9012 285.686 29.9012C285.67 29.9012 285.67 29.8536 285.67 29.7901C285.765 28.798 285.829 27.798 285.861 26.806C285.853 26.8456 285.837 26.8536 285.829 26.806C285.829 26.7663 285.829 26.6869 285.829 26.6472C285.837 26.5996 285.853 26.6075 285.861 26.6472C285.9 24.798 285.797 22.9488 285.535 21.1552C285.726 22.8298 285.789 24.5123 285.726 26.1948L285.757 26.7504C285.757 26.798 285.757 26.8694 285.742 26.8853C285.734 26.9012 285.718 26.8615 285.718 26.806V26.6552C285.702 26.9726 285.631 27.2186 285.575 27.2107C285.512 27.1869 285.48 26.9171 285.488 26.5917C285.504 25.7107 285.496 24.8377 285.472 23.9647L285.448 23.679L285.408 23.3933C285.448 24.7504 285.408 26.1075 285.305 27.4567C285.305 27.5758 285.274 27.671 285.258 27.671C285.242 27.671 285.226 27.5758 285.226 27.4647C285.266 25.0917 285.139 22.6948 284.782 20.3298C284.576 19.5679 284.354 18.8139 284.084 18.0599L284.147 18.3536C284.671 20.8536 285.083 23.044 285.139 25.5758C285.139 25.6393 285.131 25.6948 285.115 25.7028C285.107 25.7028 285.091 25.6631 285.099 25.5996C285.059 24.3694 284.956 23.2425 284.782 22.044C284.647 21.044 284.473 20.1075 284.235 19.2107C284.607 21.0599 284.845 22.8774 284.925 24.7742C284.925 24.8536 284.925 24.9409 284.917 24.9964C284.917 24.9964 284.933 25.0202 284.933 25.044C284.964 25.2821 284.988 25.5361 284.996 25.8059C284.996 25.8536 284.996 25.9171 284.98 25.9488C284.972 25.9726 284.956 25.9488 284.956 25.8853H284.933ZM265.841 3.15516L265.794 3.13928C265.849 3.13928 265.905 3.15516 265.968 3.16309C265.968 3.16309 265.968 3.16309 266.214 3.25039C266.214 3.25039 266.032 3.19484 265.849 3.15516H265.841ZM262.835 3.63928C262.756 3.61547 262.692 3.60754 262.692 3.60754C262.748 3.62341 262.796 3.63135 262.835 3.63928ZM281.284 8.49643C280.538 7.6869 279.729 6.95674 278.873 6.2742C279.095 6.425 279.309 6.58373 279.523 6.74246C280.158 7.2742 280.753 7.86151 281.292 8.49643H281.284ZM263.779 2.90119C264.057 2.93293 264.279 2.97262 264.485 3.02024C264.667 3.00436 264.858 2.98849 265.048 2.98849C265.564 2.97262 266.071 2.98849 266.563 3.0123C266.5 2.98055 266.619 2.98849 266.682 2.98055H266.872C266.341 2.94087 265.81 2.91706 265.27 2.90119C264.778 2.88531 264.247 2.90119 263.787 2.90119H263.779ZM260.115 3.48849H260.067C260.067 3.48849 260.067 3.48849 260.154 3.425C260.154 3.425 260.139 3.45674 260.115 3.48849ZM259.972 3.59166H260.051C260.051 3.59166 260.004 3.60754 259.972 3.59166ZM260.67 3.52817C260.63 3.52817 260.599 3.52024 260.567 3.52817C260.67 3.52817 260.67 3.52817 260.67 3.52817ZM261.368 4.80595L261.59 4.53611L261.344 4.79801H261.368V4.80595Z" fill="currentColor"/>
<path d="M274.837 23.4557L274.725 23.4319C274.797 23.416 274.908 23.4081 275.035 23.416C273.829 23.2732 272.275 23.3525 271.244 23.4795C270.879 23.4478 270.546 23.4795 270.506 23.5509C270.466 23.6303 270.728 23.7176 271.101 23.7494C271.18 23.7652 271.275 23.7732 271.339 23.789C271.862 23.9398 272.513 24.0509 273.226 24.1224L272.806 24.043C273.012 24.0668 273.219 24.0906 273.449 24.0906L273.369 24.043C274.083 24.1541 275.074 24.0906 275.574 23.916C276.082 23.7335 275.876 23.5509 275.154 23.4795L274.837 23.4398V23.4557Z" fill="#EFA038"/>
<path d="M273.52 23.0199C273.941 23.0754 274.337 23.123 274.75 23.1706L274.829 23.1945L274.797 23.0754C274.425 23.1945 273.798 23.2421 273.227 23.2659L273.021 23.2818C272.926 23.2976 272.854 23.3135 272.838 23.3453C272.791 23.4008 272.965 23.4643 273.235 23.4722L273.544 23.4881C274.298 23.5675 275.495 23.5278 275.924 23.2897C276.019 23.2341 275.924 23.1865 275.9 23.131C275.924 23.0516 275.63 23.004 275.257 23.0119C274.885 23.0199 274.56 23.0913 274.536 23.1706L274.345 23.1548L274.496 23.123C274.393 23.1945 274.052 23.2183 273.798 23.25L273.417 23.2659L273.632 23.4484L273.83 23.4246C273.83 23.4246 273.782 23.4087 273.79 23.4008C274.171 23.3453 274.528 23.2976 274.94 23.25L275.464 23.1627C275.606 23.123 275.591 23.0675 275.432 23.0437L275.202 23.0119L275.305 23.0278C274.766 23.0119 274.211 22.996 273.687 22.9484C273.608 22.9405 273.505 22.9484 273.457 22.9643C273.417 22.9802 273.457 23.004 273.544 23.0119L273.52 23.0199Z" fill="#EFA038"/>
<path d="M275.4 22.9559C275.487 22.9639 275.575 22.9798 275.694 22.9639C275.725 22.9559 275.741 22.948 275.749 22.948C275.702 22.948 275.638 22.9321 275.575 22.9242C275.456 22.9083 275.392 22.9242 275.4 22.9559Z" fill="#EFA038"/>
<path d="M275.749 22.9474C275.788 22.9474 275.82 22.9553 275.82 22.9553L275.772 22.9395H275.756C275.756 22.9395 275.756 22.9395 275.749 22.9395V22.9474Z" fill="#EFA038"/>
<path d="M254.206 15.3535C253.246 13.8456 252.588 12.163 252.231 10.4567C252.223 10.4011 252.199 10.3535 252.191 10.3535C252.183 10.3535 252.183 10.4011 252.191 10.4488C252.548 12.163 253.206 13.8456 254.158 15.3535C254.19 15.4011 254.229 15.4408 254.237 15.4408C254.245 15.4408 254.237 15.3932 254.206 15.3456V15.3535Z" fill="#EFA038"/>
<path d="M253.112 3.01225C253.112 3.01225 253.127 3.05193 253.143 3.01225C253.159 2.9805 253.167 2.91701 253.159 2.87733C253.159 2.84558 253.143 2.84558 253.127 2.87733C253.112 2.91701 253.104 2.97256 253.112 3.01225Z" fill="#EFA038"/>
<path d="M253.953 3.47216C253.953 3.69438 253.937 3.90073 253.953 4.08327C253.953 4.11502 253.953 4.1547 253.937 4.18645C253.953 4.17851 253.968 4.21819 253.968 4.29756C253.968 5.84518 254.024 7.48803 254.365 9.03565C254.381 9.03565 254.397 9.05946 254.42 9.09121C254.484 9.18645 254.532 9.40073 254.579 9.62295L254.603 9.78962C254.714 10.4642 254.888 11.123 255.111 11.7658C255.182 11.8849 255.245 12.0357 255.325 12.1864C255.61 12.7023 255.935 13.1864 256.276 13.6626C256.269 13.623 256.276 13.5991 256.276 13.5912C256.316 13.5833 256.411 13.6785 256.499 13.8055L256.633 14.0039C256.514 13.8055 256.387 13.615 256.292 13.4166L256.253 13.3372C256.118 13.123 256.007 12.9007 255.888 12.6785C254.849 10.7023 254.325 8.55153 254.159 6.3293C254.159 6.28962 254.159 6.23407 254.159 6.20232C254.167 6.17851 254.183 6.18645 254.183 6.22613C254.389 7.62295 254.746 8.78168 255.229 10.1864C255.816 11.8531 256.705 13.2976 257.902 14.5198C259.092 15.861 260.559 16.7896 262.32 17.5357C264.716 18.5436 267.222 19.0912 269.879 19.3849C270.878 19.4642 271.783 19.6785 271.91 19.9166C271.981 20.0595 271.743 20.1864 271.315 20.2499L271.561 20.2658L271.957 20.3134C272.33 20.361 272.647 20.4245 272.853 20.5118L273.131 20.615C273.504 20.8134 274.107 20.9642 274.424 21.1547L274.352 21.2261L274.424 21.2499C274.67 21.2976 274.828 21.361 274.892 21.4404L274.868 21.5277C274.82 21.6309 274.701 21.7341 274.503 21.8293C274.503 21.869 274.487 21.9007 274.44 21.9404C274.614 22.0277 274.694 22.123 274.559 22.2341C274.662 22.2579 274.646 22.2976 274.527 22.3214C274.487 22.3293 274.432 22.3372 274.384 22.3372C274.44 22.361 274.456 22.369 274.535 22.3928C274.638 22.3928 274.694 22.4007 274.694 22.4007C274.963 22.4007 274.963 22.4007 275.201 22.4166C275.407 22.4404 275.534 22.4722 275.534 22.4722C275.772 22.615 275.772 22.615 275.74 22.6864L275.701 22.7103C275.883 22.7182 275.899 22.7182 275.955 22.7261C276.01 22.7341 276.05 22.742 276.05 22.742C276.066 22.7817 276.058 22.7817 276.097 22.7896C276.113 22.8055 276.113 22.8134 276.113 22.8134C275.994 22.869 276.002 22.861 276.002 22.8769C275.978 22.8928 275.947 22.9007 275.947 22.9007C275.828 22.9245 275.772 22.9325 275.756 22.9325C275.487 22.8531 275.495 22.8531 275.487 22.8531L275.431 22.8928C275.368 22.8531 275.368 22.8531 275.368 22.8531L275.407 22.8928C275.273 22.8769 275.273 22.8769 275.273 22.8769C275.423 22.9087 275.423 22.9087 275.423 22.9087C275.114 22.9087 275.114 22.9087 274.995 22.9087C274.868 22.9087 274.757 22.9245 274.741 22.9245C274.749 22.9404 274.757 22.9484 274.757 22.9484C274.432 22.9484 274.432 22.9484 274.107 22.9245C274.075 22.9166 274.051 22.9087 274.035 22.9007C274.003 22.9087 273.94 22.9166 273.884 22.9166H273.718H273.686C273.631 22.9245 273.591 22.9325 273.543 22.9404C273.512 22.9404 273.512 22.9404 273.512 22.9404C273.417 22.9484 273.274 22.9722 272.901 23.0118C272.806 23.0118 272.711 22.996 272.623 22.988L272.703 23.0118C272.758 23.0277 272.703 23.0595 272.734 23.0674C273.432 23.1626 274.202 23.1944 274.963 23.2023C275.098 23.1944 275.225 23.2023 275.249 23.2341C275.265 23.2658 275.169 23.2976 275.035 23.3055C273.496 23.5595 271.592 23.4722 270.038 23.1706C269.625 23.115 269.213 23.0515 268.8 22.9801L268.856 23.0039L268.539 22.9325H268.507L268.745 23.0198L268.911 23.0595C269.879 23.2103 270.752 23.3849 271.687 23.5039C272.195 23.5674 272.623 23.6388 273.107 23.6944C273.234 23.6944 273.313 23.7261 273.305 23.7499C273.29 23.7737 273.171 23.7896 273.052 23.7896C271.442 23.8134 269.601 23.6071 268.356 23.2023C268.063 23.1547 267.785 23.0991 267.563 23.0198H267.547L267.714 23.0991C267.5 23.0515 267.389 22.988 267.198 22.9325L267.262 23.0198C266.199 22.7817 265.041 22.5357 264.097 22.1468L263.986 22.1071C263.55 22.0277 263.113 21.9404 262.622 21.7737C262.788 21.8452 262.947 21.9087 263.113 21.9722C262.741 21.8849 262.376 21.7737 261.995 21.623C260.964 21.2182 259.885 20.5436 259.473 20.0753C257.585 19.0436 255.848 17.5991 254.5 15.8214C254.428 15.7341 254.389 15.6309 254.389 15.6071C254.397 15.5833 254.46 15.6388 254.524 15.7261C255.515 16.9642 256.689 18.0753 257.99 18.9563C256.943 18.1626 255.991 17.2182 255.142 16.1626L254.817 15.7499C254.706 15.615 254.619 15.4722 254.532 15.3214C253.548 13.8849 252.913 12.3372 252.446 10.6547C252.065 9.21025 251.882 7.90867 251.803 6.44041C251.716 4.37692 251.866 2.50391 252.295 0.551525C252.35 0.289621 252.438 0.0594618 252.501 0.0435888C252.564 0.0277158 252.572 0.226129 252.517 0.480097C251.827 4.52772 251.692 8.84518 253.445 13.0277C253.635 13.4722 253.849 13.9007 254.079 14.3214L254.095 14.2976C254.095 14.2976 254.167 14.3055 254.23 14.361C253.968 13.8928 253.738 13.4007 253.54 12.9007C252.898 11.5436 252.453 10.0753 252.327 8.50391C252.239 7.42454 252.279 6.44041 252.382 5.45629C252.406 4.21026 252.517 2.96422 252.707 1.73407C252.707 1.68645 252.731 1.63089 252.739 1.61502C252.747 1.59914 252.755 1.63089 252.755 1.67851C252.66 2.53565 252.596 3.4166 252.549 4.30549C252.596 4.17057 252.652 4.09121 252.699 4.10708C252.755 4.12295 252.779 4.23407 252.802 4.40073C252.818 4.20232 252.85 4.00391 252.866 3.80549C252.882 3.68645 252.913 3.59121 252.937 3.59914C252.961 3.59914 252.977 3.70232 252.961 3.82137C252.858 4.62295 252.818 5.44041 252.794 6.24994C252.818 7.22613 252.906 8.19438 253.072 9.16264C253.088 9.01978 253.112 8.9166 253.151 8.86899L253.096 8.42454C252.652 5.70232 252.921 2.83724 253.611 0.0991443C253.627 0.0435888 253.643 0.00390625 253.651 0.00390625C253.659 0.00390625 253.659 0.0515253 253.651 0.0991443C253.445 0.924541 253.27 1.75787 253.151 2.59914C253.151 2.59914 253.175 2.55946 253.183 2.59914C253.183 2.63089 253.183 2.70232 253.167 2.73407C253.151 2.77375 253.143 2.76581 253.136 2.73407C252.921 4.29756 252.842 5.88486 253.009 7.43248C252.913 5.99597 253.009 4.55153 253.223 3.13883L253.247 2.67057C253.247 2.63089 253.262 2.57533 253.278 2.55946C253.286 2.55153 253.294 2.58327 253.294 2.62295V2.75787C253.334 2.48803 253.413 2.28962 253.469 2.30549C253.532 2.3293 253.54 2.5674 253.492 2.84518C253.381 3.58327 253.318 4.3293 253.27 5.07534V5.31343L253.286 5.55946C253.358 4.40867 253.532 3.26581 253.762 2.13883C253.778 2.04359 253.81 1.96422 253.834 1.96422C253.857 1.96422 253.857 2.04359 253.834 2.14676C253.564 4.13883 253.469 6.17851 253.699 8.17851C253.857 8.8293 254.048 9.46422 254.294 10.0833L254.246 9.83724C253.826 7.75787 253.556 5.88486 253.754 3.74994C253.754 3.69438 253.77 3.6547 253.786 3.64676C253.794 3.64676 253.802 3.67851 253.802 3.73406C253.707 4.77375 253.754 5.72613 253.826 6.742C253.889 7.58327 254.008 8.37692 254.198 9.12295C253.913 7.57533 253.81 6.03565 253.889 4.44041C253.889 4.36899 253.905 4.29756 253.921 4.25787C253.921 4.25787 253.913 4.242 253.913 4.21819C253.913 4.01978 253.913 3.79756 253.913 3.57533C253.913 3.53565 253.921 3.4801 253.937 3.45629C253.953 3.43248 253.96 3.45629 253.96 3.51184L253.953 3.47216ZM270.363 22.4404L270.403 22.4563C270.355 22.4484 270.307 22.4325 270.26 22.4245C270.26 22.4245 270.26 22.4245 270.061 22.3134C270.061 22.3134 270.212 22.3769 270.363 22.4404ZM272.949 22.2579C273.02 22.2896 273.068 22.3134 273.068 22.3134C273.02 22.2896 272.98 22.2737 272.949 22.2579ZM257.038 18.0753C257.752 18.6864 258.505 19.242 259.267 19.7579L258.68 19.4166C258.101 19.0118 257.553 18.5595 257.03 18.0753H257.038ZM272.076 22.8928C271.846 22.8372 271.664 22.7737 271.497 22.7023C271.346 22.7023 271.18 22.7023 271.021 22.6864C270.585 22.6547 270.157 22.5991 269.744 22.5436C269.792 22.5833 269.697 22.5674 269.641 22.5674H269.482C269.927 22.6309 270.371 22.6944 270.831 22.7579C271.243 22.8134 271.687 22.8531 272.084 22.9007L272.076 22.8928ZM275.217 22.7737H275.257C275.257 22.7737 275.257 22.7817 275.177 22.8372C275.177 22.8372 275.193 22.8134 275.217 22.7737ZM275.352 22.6944H275.288C275.288 22.6944 275.328 22.6785 275.352 22.6944ZM274.757 22.6547C274.757 22.6547 274.812 22.6706 274.844 22.6785L274.757 22.6547ZM274.313 21.2896L274.099 21.5277L274.337 21.2976H274.313V21.2896Z" fill="#EFA038"/>
</svg>
