<svg xmlns="http://www.w3.org/2000/svg" viewBox="0 0 951 204.9" role="img" aria-hidden="true">
  <path fill="currentColor" d="M198.8,3.3l-23.7,122.9h-.3L149.8,3.3h-47.4l-24.7,122.9h-.3L53.8,3.3H0L45.7,201.3h54l25.4-121.3h.3l25.9,121.3h53.5L250.5,3.3h-51.7ZM856.4,135v-5.2c0-19.3,8.2-31.6,20.2-42.5l7-5.7c7.9-6.4,14.9-12.3,14.9-21.3,0-10.3-7-16.5-18-16.5-10.1,0-17.8,6.4-21.1,17.5l-.4,1.4h-49.3c3.6-40.5,34.4-62.7,75-62.7s66,22,66,54.5c0,22.2-12.4,33.3-23.3,43.2-13.2,12-19.6,21.2-19.8,32.1v5.2h-51.2Z"/>
  <path fill="#e81c30" d="M907.5,201.3h-111.8v-45.1h111.8v45.1Z"/>
  <path fill="currentColor" d="M720.9,201.3V116c0-21-21-27-31.3-8-4.1,9.2-5.9,19.2-5.3,29.3v64.1h-50.7V3.3h50.7V89.7c16.9-35.8,56.6-40.4,76.3-18.6,7.1,7.9,11,19.3,11,34v96.2h-50.7Zm-373,0V116c0-21-21-27-31.3-8-4.1,9.2-5.9,19.2-5.3,29.3v64.1h-50.7V3.3h50.7V89.7c16.9-35.8,56.6-40.4,76.3-18.6,7.1,7.9,11,19.3,11,34v96.2h-50.7Zm70.4,0V61.5h50.7V201.3h-50.7Zm201.4-51.8c-2.1,31.5-25.9,55.4-63,55.4-44.6,0-72.4-28.2-72.4-73.5s28-73.4,71.4-73.4c34.1,0,60.6,17,63.4,55.2h-44c-1.9-9.4-7-19.2-19.3-19.2-19.4,0-22.6,24-22.6,37.4,0,16.4,4.5,37.2,22.5,37.2,9,0,15.9-7.1,19.3-19l44.7-.1h0ZM443.6,52.2c-14,0-28.1-8.9-28.1-26S429.6,0,443.5,0s28.2,9,28.2,26.2-14.1,26-28.1,26Z"/>
</svg>
