<svg xmlns="http://www.w3.org/2000/svg" viewBox="0 0 95 16" role="img" aria-hidden="true">
  <path fill="currentColor" d="m.5 12.826 7.976-9.281H.747V.748H12.58V3.17l-7.977 9.285h7.977v2.797H.5v-2.426ZM14.214 8.041V8c0-4.125 3.255-7.5 7.728-7.5 4.474 0 7.688 3.337 7.688 7.459V8c0 4.121-3.251 7.5-7.729 7.5-4.477 0-7.687-3.334-7.687-7.459Zm12.079 0V8c0-2.486-1.823-4.556-4.392-4.556-2.569 0-4.35 2.029-4.35 4.515V8c0 2.486 1.823 4.556 4.392 4.556 2.568 0 4.35-2.028 4.35-4.515ZM31.681 8.041V8c0-4.125 3.255-7.5 7.729-7.5s7.688 3.337 7.688 7.459V8c0 4.121-3.252 7.5-7.73 7.5-4.477 0-7.687-3.334-7.687-7.459Zm12.079 0V8c0-2.486-1.822-4.556-4.391-4.556s-4.35 2.029-4.35 4.515V8c0 2.486 1.822 4.556 4.391 4.556s4.35-2.028 4.35-4.515ZM49.149 8.041V8c0-4.125 3.108-7.5 7.563-7.5 2.734 0 4.373.911 5.72 2.239l-2.03 2.34c-1.117-1.016-2.257-1.635-3.708-1.635-2.445 0-4.208 2.029-4.208 4.515V8c0 2.486 1.722 4.556 4.208 4.556 1.657 0 2.673-.663 3.813-1.698l2.03 2.05c-1.493 1.595-3.15 2.592-5.948 2.592-4.271 0-7.44-3.293-7.44-7.459ZM64.865.748h3.191v5.737h5.884V.748h3.191v14.5H73.94v-5.82h-5.884v5.82h-3.191V.749ZM85.407.646h2.944l6.214 14.606h-3.334l-1.327-3.25h-6.132l-1.327 3.25h-3.251L85.407.646Zm3.357 8.535L86.836 4.48 84.91 9.18h3.855Z"/>
</svg>
